<svg width="877" height="128" viewBox="0 0 877 128" fill="none" xmlns="http://www.w3.org/2000/svg">
<path d="M63.9308 127.862C98.9051 127.862 127.862 98.8425 127.862 63.9308C127.862 28.957 98.8425 0 63.8683 0C28.957 0 0 28.957 0 63.9308C0 98.8425 29.0196 127.862 63.9308 127.862ZM63.9308 117.207C34.3473 117.207 10.7179 93.5149 10.7179 63.9308C10.7179 34.3473 34.2846 10.6552 63.8683 10.6552C93.4523 10.6552 117.207 34.3473 117.207 63.9308C117.207 93.5149 93.5149 117.207 63.9308 117.207Z" fill="#595959"/>
<path d="M63.9312 104.734C66.9397 104.734 69.008 102.603 69.008 99.4693V28.3929C69.008 25.1964 66.9397 23.0026 63.9312 23.0026C60.9227 23.0026 58.917 25.1964 58.917 28.3929V99.4693C58.917 102.603 60.9227 104.734 63.9312 104.734Z" fill="#595959"/>
<path d="M859.053 75.704C853.149 75.704 848.685 76.712 845.661 78.728C842.709 80.672 841.233 83.336 841.233 86.72C841.233 89.384 842.025 91.58 843.609 93.308C845.193 95.036 847.101 95.9 849.333 95.9C854.085 95.9 857.865 94.424 860.673 91.472C863.553 88.448 864.993 84.344 864.993 79.16V76.568C864.993 75.992 864.669 75.704 864.021 75.704H859.053ZM846.633 105.08C841.737 105.08 837.705 103.496 834.537 100.328C831.441 97.16 829.893 92.984 829.893 87.8C829.893 81.464 832.305 76.568 837.129 73.112C841.953 69.584 849.261 67.82 859.053 67.82H864.021C864.669 67.82 864.993 67.496 864.993 66.848V65.66C864.993 61.844 864.093 59.18 862.293 57.668C860.493 56.156 857.253 55.4 852.573 55.4C848.397 55.4 843.429 56.264 837.669 57.992C836.589 58.352 835.545 58.208 834.537 57.56C833.601 56.84 833.133 55.904 833.133 54.752C833.133 53.312 833.565 52.016 834.429 50.864C835.293 49.712 836.409 48.992 837.777 48.704C842.961 47.408 847.893 46.76 852.573 46.76C861.645 46.76 867.873 48.38 871.257 51.62C874.641 54.86 876.333 60.8 876.333 69.44V98.708C876.333 100.148 875.793 101.408 874.713 102.488C873.705 103.496 872.481 104 871.041 104C869.601 104 868.341 103.496 867.261 102.488C866.253 101.408 865.713 100.148 865.641 98.708L865.533 96.008C865.533 95.936 865.497 95.9 865.425 95.9C865.281 95.9 865.209 95.936 865.209 96.008C861.033 102.056 854.841 105.08 846.633 105.08Z" fill="white"/>
<path d="M779.769 102.38C778.689 103.46 777.357 104 775.773 104C774.189 104 772.821 103.46 771.669 102.38C770.589 101.3 770.049 99.968 770.049 98.384V53.132C770.049 51.692 770.553 50.468 771.561 49.46C772.641 48.38 773.901 47.84 775.341 47.84C776.781 47.84 778.005 48.38 779.013 49.46C780.093 50.468 780.669 51.692 780.741 53.132L780.849 54.752C780.849 54.824 780.885 54.86 780.957 54.86C781.029 54.86 781.101 54.824 781.173 54.752C786.285 49.424 792.117 46.76 798.669 46.76C805.221 46.76 810.009 48.632 813.033 52.376C816.057 56.048 817.569 62.096 817.569 70.52V98.492C817.569 100.004 817.029 101.3 815.949 102.38C814.869 103.46 813.573 104 812.061 104C810.549 104 809.217 103.46 808.065 102.38C806.985 101.3 806.445 100.004 806.445 98.492V72.14C806.445 65.66 805.653 61.268 804.069 58.964C802.485 56.588 799.605 55.4 795.429 55.4C792.045 55.4 788.841 56.912 785.817 59.936C782.865 62.888 781.389 66.056 781.389 69.44V98.384C781.389 99.968 780.849 101.3 779.769 102.38Z" fill="white"/>
<path d="M737.764 75.704C731.86 75.704 727.396 76.712 724.372 78.728C721.42 80.672 719.944 83.336 719.944 86.72C719.944 89.384 720.736 91.58 722.32 93.308C723.904 95.036 725.812 95.9 728.044 95.9C732.796 95.9 736.576 94.424 739.384 91.472C742.264 88.448 743.704 84.344 743.704 79.16V76.568C743.704 75.992 743.38 75.704 742.732 75.704H737.764ZM725.344 105.08C720.448 105.08 716.415 103.496 713.247 100.328C710.151 97.16 708.604 92.984 708.604 87.8C708.604 81.464 711.016 76.568 715.84 73.112C720.664 69.584 727.972 67.82 737.764 67.82H742.732C743.38 67.82 743.704 67.496 743.704 66.848V65.66C743.704 61.844 742.804 59.18 741.004 57.668C739.204 56.156 735.964 55.4 731.284 55.4C727.108 55.4 722.14 56.264 716.38 57.992C715.3 58.352 714.255 58.208 713.247 57.56C712.311 56.84 711.844 55.904 711.844 54.752C711.844 53.312 712.276 52.016 713.14 50.864C714.004 49.712 715.12 48.992 716.488 48.704C721.672 47.408 726.604 46.76 731.284 46.76C740.356 46.76 746.584 48.38 749.968 51.62C753.352 54.86 755.044 60.8 755.044 69.44V98.708C755.044 100.148 754.504 101.408 753.424 102.488C752.416 103.496 751.192 104 749.752 104C748.312 104 747.052 103.496 745.972 102.488C744.964 101.408 744.424 100.148 744.352 98.708L744.244 96.008C744.244 95.936 744.208 95.9 744.136 95.9C743.992 95.9 743.92 95.936 743.92 96.008C739.744 102.056 733.552 105.08 725.344 105.08Z" fill="white"/>
<path d="M690.112 102.272C688.96 103.424 687.592 104 686.008 104C684.424 104 683.02 103.424 681.796 102.272C680.644 101.12 680.068 99.716 680.068 98.06V28.94C680.068 27.284 680.644 25.88 681.796 24.728C683.02 23.576 684.424 23 686.008 23C687.592 23 688.96 23.576 690.112 24.728C691.336 25.88 691.948 27.284 691.948 28.94V98.06C691.948 99.716 691.336 101.12 690.112 102.272Z" fill="white"/>
<path d="M652.911 75.92C652.911 62.24 647.943 55.4 638.007 55.4C628.071 55.4 623.103 62.24 623.103 75.92C623.103 89.6 628.071 96.44 638.007 96.44C647.943 96.44 652.911 89.6 652.911 75.92ZM657.447 97.52C652.767 102.56 646.287 105.08 638.007 105.08C629.727 105.08 623.247 102.56 618.567 97.52C613.887 92.408 611.547 85.208 611.547 75.92C611.547 66.632 613.887 59.468 618.567 54.428C623.247 49.316 629.727 46.76 638.007 46.76C646.287 46.76 652.767 49.316 657.447 54.428C662.127 59.468 664.467 66.632 664.467 75.92C664.467 85.208 662.127 92.408 657.447 97.52Z" fill="white"/>
<path d="M575.966 68.9C567.758 66.092 561.818 62.744 558.146 58.856C554.546 54.896 552.746 50.144 552.746 44.6C552.746 38.264 554.762 33.26 558.794 29.588C562.826 25.916 568.37 24.08 575.426 24.08C582.05 24.08 587.882 24.872 592.922 26.456C594.434 26.96 595.658 27.932 596.594 29.372C597.602 30.74 598.106 32.288 598.106 34.016C598.106 35.24 597.566 36.176 596.486 36.824C595.406 37.472 594.29 37.544 593.138 37.04C587.666 34.736 582.122 33.584 576.506 33.584C572.618 33.584 569.63 34.556 567.542 36.5C565.454 38.444 564.41 41.144 564.41 44.6C564.41 47.408 565.382 49.964 567.326 52.268C569.27 54.5 572.15 56.264 575.966 57.56C585.47 60.728 592.058 64.256 595.73 68.144C599.474 72.032 601.346 76.964 601.346 82.94C601.346 90.212 599.114 95.72 594.65 99.464C590.186 103.208 583.598 105.08 574.886 105.08C569.198 105.08 564.05 104.216 559.442 102.488C556.058 101.12 554.366 98.456 554.366 94.496C554.366 93.272 554.906 92.372 555.986 91.796C557.066 91.22 558.146 91.22 559.226 91.796C563.69 94.172 568.55 95.36 573.806 95.36C584.246 95.36 589.466 91.22 589.466 82.94C589.466 79.772 588.422 77.072 586.334 74.84C584.318 72.608 580.862 70.628 575.966 68.9Z" fill="white"/>
<path d="M470.253 58.64C469.101 58.64 468.093 58.208 467.229 57.344C466.365 56.48 465.933 55.472 465.933 54.32C465.933 53.168 466.365 52.16 467.229 51.296C468.093 50.432 469.101 50 470.253 50H475.761C476.409 50 476.733 49.676 476.733 49.028V45.68C476.733 38.192 478.281 32.72 481.377 29.264C484.545 25.808 489.297 24.08 495.633 24.08C497.505 24.08 499.521 24.26 501.681 24.62C502.905 24.836 503.913 25.484 504.705 26.564C505.497 27.572 505.893 28.724 505.893 30.02C505.893 31.028 505.461 31.856 504.597 32.504C503.733 33.08 502.797 33.26 501.789 33.044C500.493 32.828 499.161 32.72 497.793 32.72C494.481 32.72 492.105 33.62 490.665 35.42C489.297 37.22 488.613 40.46 488.613 45.14V49.028C488.613 49.676 488.937 50 489.585 50H509.241C509.889 50 510.213 49.676 510.213 49.028V45.68C510.213 38.192 511.761 32.72 514.857 29.264C518.025 25.808 522.777 24.08 529.113 24.08C530.985 24.08 533.001 24.26 535.161 24.62C536.385 24.836 537.393 25.484 538.185 26.564C538.977 27.572 539.373 28.724 539.373 30.02C539.373 31.028 538.941 31.856 538.077 32.504C537.213 33.08 536.277 33.26 535.269 33.044C533.973 32.828 532.641 32.72 531.273 32.72C527.961 32.72 525.585 33.62 524.145 35.42C522.777 37.22 522.093 40.46 522.093 45.14V49.028C522.093 49.676 522.417 50 523.065 50H535.053C536.205 50 537.213 50.432 538.077 51.296C538.941 52.16 539.373 53.168 539.373 54.32C539.373 55.472 538.941 56.48 538.077 57.344C537.213 58.208 536.205 58.64 535.053 58.64H523.065C522.417 58.64 522.093 58.964 522.093 59.612V98.06C522.093 99.716 521.517 101.12 520.365 102.272C519.213 103.424 517.809 104 516.153 104C514.497 104 513.093 103.424 511.941 102.272C510.789 101.12 510.213 99.716 510.213 98.06V59.612C510.213 58.964 509.889 58.64 509.241 58.64H489.585C488.937 58.64 488.613 58.964 488.613 59.612V98.06C488.613 99.716 488.037 101.12 486.885 102.272C485.733 103.424 484.329 104 482.673 104C481.017 104 479.613 103.424 478.461 102.272C477.309 101.12 476.733 99.716 476.733 98.06V59.612C476.733 58.964 476.409 58.64 475.761 58.64H470.253Z" fill="white"/>
<path d="M438.216 41.576C434.256 36.392 428.604 33.8 421.26 33.8C413.916 33.8 408.228 36.392 404.196 41.576C400.236 46.688 398.256 54.356 398.256 64.58C398.256 74.804 400.236 82.508 404.196 87.692C408.228 92.804 413.916 95.36 421.26 95.36C428.604 95.36 434.256 92.804 438.216 87.692C442.248 82.508 444.264 74.804 444.264 64.58C444.264 54.356 442.248 46.688 438.216 41.576ZM446.856 94.388C440.592 101.516 432.06 105.08 421.26 105.08C410.46 105.08 401.892 101.516 395.556 94.388C389.292 87.26 386.16 77.324 386.16 64.58C386.16 51.836 389.292 41.9 395.556 34.772C401.892 27.644 410.46 24.08 421.26 24.08C432.06 24.08 440.592 27.644 446.856 34.772C453.192 41.9 456.36 51.836 456.36 64.58C456.36 77.324 453.192 87.26 446.856 94.388Z" fill="white"/>
<path d="M337.117 102.38C336.037 103.46 334.705 104 333.121 104C331.537 104 330.169 103.46 329.017 102.38C327.937 101.3 327.397 99.968 327.397 98.384V53.132C327.397 51.692 327.901 50.468 328.909 49.46C329.989 48.38 331.249 47.84 332.689 47.84C334.129 47.84 335.353 48.38 336.361 49.46C337.441 50.468 338.017 51.692 338.089 53.132L338.197 54.752C338.197 54.824 338.233 54.86 338.305 54.86C338.377 54.86 338.449 54.824 338.521 54.752C343.633 49.424 349.465 46.76 356.017 46.76C362.569 46.76 367.357 48.632 370.381 52.376C373.405 56.048 374.917 62.096 374.917 70.52V98.492C374.917 100.004 374.377 101.3 373.297 102.38C372.217 103.46 370.921 104 369.409 104C367.897 104 366.565 103.46 365.413 102.38C364.333 101.3 363.793 100.004 363.793 98.492V72.14C363.793 65.66 363.001 61.268 361.417 58.964C359.833 56.588 356.953 55.4 352.777 55.4C349.393 55.4 346.189 56.912 343.165 59.936C340.213 62.888 338.737 66.056 338.737 69.44V98.384C338.737 99.968 338.197 101.3 337.117 102.38Z" fill="white"/>
<path d="M287.451 102.272C286.299 103.424 284.895 104 283.239 104C281.583 104 280.179 103.424 279.027 102.272C277.875 101.12 277.299 99.716 277.299 98.06V53.456C277.299 51.872 277.839 50.54 278.919 49.46C279.999 48.38 281.331 47.84 282.915 47.84C284.499 47.84 285.831 48.38 286.911 49.46C288.063 50.54 288.639 51.872 288.639 53.456V58.532C288.639 58.604 288.675 58.64 288.747 58.64C288.891 58.64 288.963 58.604 288.963 58.532C291.123 55.58 294.003 53.168 297.603 51.296C301.203 49.352 305.127 48.236 309.375 47.948C310.671 47.876 311.751 48.272 312.615 49.136C313.551 50 314.019 51.08 314.019 52.376C314.019 53.672 313.551 54.788 312.615 55.724C311.751 56.588 310.671 57.056 309.375 57.128C302.463 57.416 297.351 59.216 294.039 62.528C290.799 65.768 289.179 70.592 289.179 77V98.06C289.179 99.716 288.603 101.12 287.451 102.272Z" fill="white"/>
<path d="M233.104 105.08C226.768 105.08 222.124 103.352 219.172 99.896C216.22 96.368 214.744 90.536 214.744 82.4V53.348C214.744 51.836 215.284 50.54 216.364 49.46C217.444 48.38 218.74 47.84 220.252 47.84C221.764 47.84 223.06 48.38 224.14 49.46C225.292 50.54 225.868 51.836 225.868 53.348V80.78C225.868 86.756 226.66 90.86 228.244 93.092C229.828 95.324 232.528 96.44 236.344 96.44C239.728 96.44 242.896 94.964 245.848 92.012C248.872 88.988 250.384 85.784 250.384 82.4V53.456C250.384 51.872 250.924 50.54 252.004 49.46C253.156 48.38 254.524 47.84 256.108 47.84C257.692 47.84 259.024 48.38 260.104 49.46C261.184 50.54 261.724 51.872 261.724 53.456V98.708C261.724 100.148 261.184 101.408 260.104 102.488C259.096 103.496 257.872 104 256.432 104C254.992 104 253.732 103.496 252.652 102.488C251.572 101.408 250.996 100.148 250.924 98.708V97.088C250.924 97.016 250.888 96.98 250.816 96.98C250.744 96.98 250.672 97.016 250.6 97.088C245.488 102.416 239.656 105.08 233.104 105.08Z" fill="white"/>
<path d="M155.561 35.096C154.193 35.096 153.005 34.628 151.997 33.692C151.061 32.684 150.593 31.496 150.593 30.128C150.593 28.76 151.061 27.608 151.997 26.672C153.005 25.664 154.193 25.16 155.561 25.16H201.785C203.153 25.16 204.305 25.664 205.241 26.672C206.249 27.608 206.753 28.76 206.753 30.128C206.753 31.496 206.249 32.684 205.241 33.692C204.305 34.628 203.153 35.096 201.785 35.096H185.585C184.937 35.096 184.613 35.42 184.613 36.068V98.06C184.613 99.716 184.037 101.12 182.885 102.272C181.733 103.424 180.329 104 178.673 104C177.017 104 175.613 103.424 174.461 102.272C173.309 101.12 172.733 99.716 172.733 98.06V36.068C172.733 35.42 172.409 35.096 171.761 35.096H155.561Z" fill="white"/>
</svg>
